#!OML:ASF H:\Terrain\Patient Classification 1\Takeo\Monday\TakeoMonday.ASF
:FULLY-SPECIFIED
:DEGREES
95
root 10.2016 16.7797 -18.5052 -2.02194 3.49766 -0.617743
lowerback 8.23126 -2.02946 2.01929
upperback 0.63358 -2.44749 1.56006
thorax -3.973 -1.23462 0.764602
lowerneck -17.6089 1.90282 -4.27718
upperneck 0.567939 3.34748 0.736354
head 3.21426 1.66172 1.28683
rclavicle 9.06955e-015 -6.75868e-015
rhumerus -40.0488 -3.60699 -86.9009
rradius 28.537
rwrist -16.811
rhand -30.636 20.1706
rfingers 7.12502
rthumb -3.93164 -9.77287
lclavicle 9.06955e-015 -6.75868e-015
lhumerus -36.6879 -14.084 91.6763
lradius 63.2338
lwrist 30.1367
lhand -23.7734 16.8563
lfingers 7.12502
lthumb 2.69624 46.819
rfemur -20.4443 4.98792 26.0874
rtibia 39.5058
rfoot -17.6709 -13.3646
rtoes 1.1022
lfemur -3.4442 -0.820021 -21.7732
ltibia 70.6942
lfoot 8.91673 20.5614
ltoes -1.42906
96
root 10.2005 16.8336 -18.2812 -2.14098 3.09826 -0.868168
lowerback 8.44507 -1.87896 2.39604
upperback 0.623028 -2.2056 1.52527
thorax -4.11848 -1.12191 0.49766
lowerneck -17.4532 1.84882 -4.4553
upperneck 0.394204 3.28542 1.05636
head 3.11885 1.64826 1.4149
rclavicle -1.881e-014 6.75868e-015
rhumerus -39.2833 -2.89229 -87.499
rradius 29.9891
rwrist -17.2792
rhand -30.6709 21.0297
rfingers 7.12502
rthumb -3.96538 -8.91318
lclavicle -1.881e-014 6.75868e-015
lhumerus -37.3842 -13.3807 91.7901
lradius 61.3106
lwrist 28.9477
lhand -23.1272 18.1864
lfingers 7.12502
lthumb 3.32026 48.1403
rfemur -19.0515 4.99455 26.5115
rtibia 38.7188
rfoot -17.7212 -12.9731
rtoes 1.71143
lfemur -5.42594 -0.713154 -21.6066
ltibia 72.4971
lfoot 7.858 19.9339
ltoes -3.67461
97
root 10.199 16.8825 -18.0458 -2.36721 2.30031 -1.40329
lowerback 8.58422 -1.63199 2.95357
upperback 0.708879 -1.81693 1.61018
thorax -4.11757 -0.93792 0.229252
lowerneck -17.6186 1.83295 -4.37838
upperneck 0.479049 3.25661 1.06224
head 3.18205 1.63334 1.4062
rclavicle 1.66731e-014 -1.23246e-014
rhumerus -38.4499 -1.96913 -88.0816
rradius 31.4629
rwrist -17.5881
rhand -30.161 22.3835
rfingers 7.12502
rthumb -3.4729 -7.56798
lclavicle 1.66731e-014 -1.23246e-014
lhumerus -38.1182 -12.6836 91.9207
lradius 59.5187
lwrist 27.9005
lhand -22.9944 19.7727
lfingers 7.12502
lthumb 3.44854 49.7245
rfemur -17.5053 5.5175 27.2627
rtibia 37.8277
rfoot -18.1099 -12.6911
rtoes 2.35183
lfemur -7.07397 -0.196637 -21.0545
ltibia 74.0403
lfoot 6.89113 18.7913
ltoes -7.39132
98
root 10.1958 16.9199 -17.8125 -2.61925 1.54584 -2.11404
lowerback 8.80201 -1.37005 3.65257
upperback 0.855212 -1.38949 1.73988
thorax -4.09238 -0.735678 -0.0769578
lowerneck -18.1932 1.73965 -3.94591
upperneck 0.763002 3.09456 0.665112
head 3.40787 1.53163 1.19892
rclavicle 8.59744e-015 1.19271e-014
rhumerus -37.4233 -0.954034 -88.6893
rradius 32.9553
rwrist -18.1084
rhand -29.6035 22.8376
rfingers 7.12502
rthumb -2.93452 -7.122
lclavicle 8.59744e-015 1.19271e-014
lhumerus -38.724 -12.2204 92.0352
lradius 57.7511
lwrist 27.2311
lhand -23.1463 20.5534
lfingers 7.12502
lthumb 3.30186 50.5075
rfemur -15.9238 5.96856 28.2432
rtibia 36.9402
rfoot -18.5968 -12.5132
rtoes 2.40889
lfemur -8.5937 0.312176 -20.2188
ltibia 75.3542
lfoot 5.72328 17.4791
ltoes -9.3095
99
root 10.1948 16.9526 -17.5874 -2.72885 1.31276 -2.20324
lowerback 9.00944 -1.26089 3.818
upperback 0.908762 -1.22234 1.65875
thorax -4.15283 -0.656501 -0.270917
lowerneck -18.5891 1.6573 -3.63896
upperneck 0.939949 2.95445 0.403534
head 3.55817 1.44805 1.05407
rclavicle -8.77137e-015 1.98785e-015
rhumerus -36.46 0.0493449 -89.2719
rradius 34.5272
rwrist -18.7071
rhand -30.0321 21.8066
rfingers 7.12502
rthumb -3.34848 -8.14688
lclavicle -8.77137e-015 1.98785e-015
lhumerus -39.3018 -11.7412 92.0641
lradius 55.9365
lwrist 26.9432
lhand -23.2781 20.1615
lfingers 7.12502
lthumb 3.17449 50.1176
rfemur -14.5146 5.805 28.5071
rtibia 36.1242
rfoot -18.7904 -12.4465
rtoes 0.697308
lfemur -10.4269 0.139334 -20.1813
ltibia 76.4164
lfoot 4.4804 16.4597
ltoes -9.44516
